<svg id="svg" version="1.1" xmlns="http://www.w3.org/2000/svg" xmlns:xlink="http://www.w3.org/1999/xlink" width="400" height="400" viewBox="0, 0, 400,400"><g id="svgg"><path id="path0" d="M122.881 75.414 C 112.964 77.074,104.170 85.677,102.739 95.117 C 102.453 97.006,102.358 129.974,102.432 201.758 L 102.539 305.664 103.586 308.529 C 106.408 316.257,111.772 321.416,119.336 323.680 C 121.532 324.337,125.057 324.389,175.183 324.509 L 228.687 324.636 259.461 293.835 L 290.234 263.033 290.234 208.063 C 290.234 146.981,290.358 150.012,287.617 144.160 C 286.233 141.204,229.639 83.483,228.351 83.714 C 228.119 83.755,227.801 83.965,227.643 84.180 C 227.230 84.742,227.288 95.792,227.708 96.455 C 227.901 96.760,239.720 108.714,253.971 123.017 L 279.883 149.023 256.445 149.131 C 236.005 149.225,232.633 149.158,230.078 148.605 C 222.114 146.880,216.923 142.096,214.214 133.984 C 213.549 131.993,213.488 129.755,213.372 103.418 L 213.248 75.000 169.026 75.046 C 144.704 75.071,123.939 75.237,122.881 75.414 M222.988 175.556 C 225.774 177.621,248.651 200.794,249.430 202.341 C 250.463 204.389,250.648 208.576,249.807 210.841 C 249.003 213.006,224.519 237.713,221.807 239.097 C 215.459 242.335,207.624 237.438,207.692 230.273 C 207.722 227.103,208.635 225.616,213.616 220.631 L 218.228 216.016 183.235 216.013 C 144.347 216.011,146.100 216.129,143.306 213.335 C 139.280 209.309,139.964 203.003,144.788 199.670 L 146.289 198.633 182.386 198.527 L 218.483 198.422 213.802 193.840 C 207.669 187.837,206.599 185.453,207.949 180.808 C 209.841 174.299,217.625 171.580,222.988 175.556 M193.375 234.773 C 198.826 237.555,198.168 246.238,192.337 248.455 C 190.037 249.329,146.518 248.914,144.629 248.000 C 139.417 245.477,139.397 237.396,144.597 234.823 C 147.172 233.548,190.886 233.504,193.375 234.773 M250.539 236.071 C 255.487 239.844,253.838 247.022,247.594 248.893 C 242.206 250.507,237.304 243.578,240.195 238.434 C 242.282 234.721,247.274 233.581,250.539 236.071 M240.343 267.211 C 244.776 268.442,247.185 273.533,245.300 277.688 C 244.217 280.075,222.819 301.613,220.322 302.830 C 212.447 306.668,204.361 297.504,209.169 290.190 C 209.679 289.414,211.516 287.491,213.251 285.917 C 214.986 284.342,216.406 282.956,216.406 282.836 C 216.406 282.715,200.806 282.617,181.738 282.616 C 143.993 282.614,145.311 282.691,143.058 280.364 C 139.015 276.187,140.526 269.284,145.898 267.384 C 147.881 266.683,237.847 266.518,240.343 267.211 M274.777 302.912 C 263.261 314.396,253.952 323.976,254.091 324.201 C 254.492 324.851,273.711 324.707,277.539 324.025 C 286.372 322.452,293.814 315.382,295.885 306.596 C 296.582 303.639,296.771 282.031,296.100 282.031 C 295.889 282.031,286.294 291.427,274.777 302.912 " stroke="none" fill="#fbfbfb" fill-rule="evenodd"></path><path id="path1" d="M0.000 200.000 L 0.000 400.000 200.000 400.000 L 400.000 400.000 400.000 200.000 L 400.000 0.000 200.000 0.000 L 0.000 0.000 0.000 200.000 M213.203 75.078 C 213.559 75.434,213.674 82.156,213.679 102.910 C 213.684 125.169,213.790 130.767,214.246 132.918 C 215.843 140.455,221.813 146.447,229.502 148.230 C 232.279 148.874,278.907 149.162,278.906 148.535 C 278.906 148.374,267.301 136.641,253.118 122.461 L 227.331 96.680 227.435 90.071 C 227.512 85.180,227.667 83.420,228.031 83.299 C 228.302 83.209,241.515 96.115,257.394 111.978 L 286.265 140.820 287.824 144.141 C 290.555 149.957,290.422 147.610,290.507 191.406 C 290.550 213.213,290.488 238.350,290.370 247.266 L 290.155 263.477 259.587 294.043 L 229.020 324.609 175.705 324.609 C 123.866 324.609,122.307 324.588,119.369 323.837 C 111.675 321.869,105.391 315.541,102.875 307.227 C 102.028 304.428,101.511 104.517,102.330 96.680 C 103.502 85.471,112.798 76.278,124.219 75.033 C 129.235 74.486,212.653 74.528,213.203 75.078 M213.783 174.652 C 208.543 176.666,206.166 183.274,208.950 188.086 C 209.571 189.160,211.942 191.866,214.219 194.099 C 216.496 196.331,218.359 198.265,218.359 198.396 C 218.360 198.526,202.950 198.582,184.115 198.521 C 160.457 198.444,149.235 198.541,147.816 198.836 C 140.102 200.437,138.400 211.086,145.276 214.716 L 146.998 215.625 182.679 215.625 C 202.303 215.625,218.359 215.757,218.359 215.918 C 218.359 216.079,216.417 218.145,214.044 220.508 C 208.837 225.693,207.592 227.831,207.921 231.020 C 208.597 237.563,214.664 241.381,220.859 239.162 C 222.510 238.570,224.547 236.713,235.749 225.586 C 255.337 206.128,255.351 207.820,235.447 188.003 C 220.271 172.894,219.535 172.441,213.783 174.652 M155.469 234.353 C 147.028 234.537,145.319 234.674,144.269 235.248 C 139.592 237.807,140.049 246.120,144.970 247.991 C 145.596 248.229,154.857 248.417,168.822 248.475 L 191.651 248.570 193.222 247.686 C 197.919 245.047,198.167 238.229,193.674 235.254 L 192.051 234.180 178.740 234.157 C 171.419 234.145,160.947 234.233,155.469 234.353 M244.017 235.332 C 239.004 237.120,237.957 243.841,242.143 247.364 C 246.282 250.847,253.125 247.418,253.125 241.861 C 253.125 236.913,248.627 233.688,244.017 235.332 M145.173 267.989 C 141.050 270.198,139.723 275.348,142.280 279.212 C 144.402 282.418,141.825 282.213,181.543 282.330 C 200.933 282.387,216.797 282.528,216.797 282.642 C 216.797 282.757,215.201 284.369,213.251 286.226 C 207.866 291.350,206.821 294.142,208.742 298.270 C 210.817 302.724,215.642 304.638,219.922 302.704 C 221.909 301.807,242.524 281.586,244.551 278.546 C 247.055 274.792,245.194 269.224,240.893 267.602 C 238.475 266.691,146.905 267.061,145.173 267.989 M296.661 293.784 C 296.643 305.102,296.600 305.784,295.756 308.203 C 293.004 316.083,286.693 322.081,279.117 324.015 C 276.420 324.703,254.134 324.903,253.725 324.242 C 253.437 323.775,295.693 281.572,296.259 281.762 C 296.548 281.859,296.674 285.629,296.661 293.784 " stroke="none" fill="#3b4551" fill-rule="evenodd"></path><path id="path2" d="M213.432 95.313 C 213.432 97.998,213.494 99.097,213.570 97.754 C 213.647 96.411,213.647 94.214,213.570 92.871 C 213.494 91.528,213.432 92.627,213.432 95.313 M213.415 118.945 C 213.417 120.664,213.485 121.319,213.568 120.400 C 213.650 119.481,213.649 118.075,213.565 117.275 C 213.481 116.475,213.414 117.227,213.415 118.945 M239.573 149.120 C 242.109 149.188,246.152 149.188,248.557 149.120 C 250.962 149.051,248.887 148.995,243.945 148.996 C 239.004 148.996,237.036 149.052,239.573 149.120 M254.004 149.108 C 254.595 149.197,255.562 149.197,256.152 149.108 C 256.743 149.018,256.260 148.945,255.078 148.945 C 253.896 148.945,253.413 149.018,254.004 149.108 M266.113 149.117 C 267.349 149.194,269.370 149.194,270.605 149.117 C 271.841 149.039,270.830 148.976,268.359 148.976 C 265.889 148.976,264.878 149.039,266.113 149.117 M237.891 190.430 C 239.275 191.826,240.495 192.969,240.602 192.969 C 240.710 192.969,239.665 191.826,238.281 190.430 C 236.897 189.033,235.677 187.891,235.569 187.891 C 235.462 187.891,236.507 189.033,237.891 190.430 M242.969 195.508 C 244.136 196.689,245.178 197.656,245.286 197.656 C 245.393 197.656,244.526 196.689,243.359 195.508 C 242.192 194.326,241.150 193.359,241.042 193.359 C 240.935 193.359,241.802 194.326,242.969 195.508 M150.306 215.913 C 151.441 215.993,153.199 215.992,154.212 215.912 C 155.226 215.831,154.297 215.767,152.148 215.768 C 150.000 215.769,149.171 215.834,150.306 215.913 M149.719 267.084 C 150.746 267.165,152.328 267.164,153.234 267.082 C 154.141 267.000,153.301 266.934,151.367 266.936 C 149.434 266.937,148.692 267.004,149.719 267.084 M159.473 267.077 C 160.063 267.166,161.030 267.166,161.621 267.077 C 162.212 266.987,161.729 266.914,160.547 266.914 C 159.365 266.914,158.882 266.987,159.473 267.077 M272.436 280.957 L 271.289 282.227 272.559 281.079 C 273.257 280.448,273.828 279.877,273.828 279.810 C 273.828 279.508,273.506 279.774,272.436 280.957 M258.380 295.020 L 256.836 296.680 258.496 295.136 C 259.409 294.286,260.156 293.539,260.156 293.475 C 260.156 293.180,259.816 293.476,258.380 295.020 M255.249 298.145 L 254.102 299.414 255.371 298.267 C 256.069 297.636,256.641 297.064,256.641 296.997 C 256.641 296.695,256.318 296.961,255.249 298.145 " stroke="none" fill="#9ba4a8" fill-rule="evenodd"></path><path id="path3" d="M148.340 74.902 C 160.210 74.960,179.634 74.960,191.504 74.902 C 203.374 74.845,193.662 74.798,169.922 74.798 C 146.182 74.798,136.470 74.845,148.340 74.902 M213.445 83.008 C 213.445 87.305,213.502 89.116,213.572 87.032 C 213.642 84.949,213.643 81.434,213.573 79.220 C 213.503 77.006,213.446 78.711,213.445 83.008 M229.297 84.107 C 229.297 84.174,229.868 84.745,230.566 85.376 L 231.836 86.523 230.689 85.254 C 229.619 84.071,229.297 83.805,229.297 84.107 M240.625 95.508 C 242.009 96.904,243.229 98.047,243.337 98.047 C 243.444 98.047,242.400 96.904,241.016 95.508 C 239.632 94.111,238.411 92.969,238.304 92.969 C 238.196 92.969,239.241 94.111,240.625 95.508 M249.805 104.688 C 253.237 108.125,256.133 110.938,256.241 110.938 C 256.348 110.938,253.628 108.125,250.195 104.688 C 246.763 101.250,243.867 98.438,243.759 98.438 C 243.652 98.438,246.372 101.250,249.805 104.688 M263.086 117.969 C 264.795 119.687,266.280 121.094,266.388 121.094 C 266.495 121.094,265.185 119.687,263.477 117.969 C 261.768 116.250,260.282 114.844,260.175 114.844 C 260.067 114.844,261.377 116.250,263.086 117.969 M213.406 124.219 C 213.406 125.615,213.477 126.187,213.564 125.488 C 213.650 124.790,213.650 123.647,213.564 122.949 C 213.477 122.251,213.406 122.822,213.406 124.219 M290.421 186.719 C 290.421 204.229,290.469 211.392,290.527 202.637 C 290.586 193.882,290.586 179.556,290.527 170.801 C 290.469 162.046,290.421 169.209,290.421 186.719 M140.716 207.422 C 140.716 208.174,140.796 208.481,140.894 208.105 C 140.993 207.729,140.993 207.114,140.894 206.738 C 140.796 206.362,140.716 206.670,140.716 207.422 M167.313 215.918 C 173.720 215.978,184.091 215.978,190.360 215.918 C 196.629 215.857,191.387 215.808,178.711 215.808 C 166.035 215.808,160.906 215.858,167.313 215.918 M203.809 215.901 C 204.292 215.994,205.083 215.994,205.566 215.901 C 206.050 215.808,205.654 215.731,204.688 215.731 C 203.721 215.731,203.325 215.808,203.809 215.901 M209.487 215.914 C 210.730 215.992,212.664 215.991,213.784 215.912 C 214.904 215.834,213.887 215.770,211.523 215.771 C 209.160 215.772,208.244 215.836,209.487 215.914 M212.280 221.973 L 211.133 223.242 212.402 222.095 C 213.101 221.464,213.672 220.893,213.672 220.825 C 213.672 220.524,213.350 220.789,212.280 221.973 M229.297 231.836 C 228.348 232.803,227.660 233.594,227.767 233.594 C 227.874 233.594,228.739 232.803,229.688 231.836 C 230.636 230.869,231.325 230.078,231.217 230.078 C 231.110 230.078,230.246 230.869,229.297 231.836 M290.401 238.867 C 290.401 243.594,290.458 245.474,290.526 243.045 C 290.595 240.616,290.595 236.749,290.526 234.451 C 290.457 232.153,290.401 234.141,290.401 238.867 M151.487 234.276 C 154.131 234.344,158.350 234.344,160.862 234.276 C 163.374 234.208,161.211 234.153,156.055 234.153 C 150.898 234.153,148.843 234.209,151.487 234.276 M140.716 241.406 C 140.716 242.158,140.796 242.466,140.894 242.090 C 140.993 241.714,140.993 241.099,140.894 240.723 C 140.796 240.347,140.716 240.654,140.716 241.406 M196.966 241.406 C 196.966 242.158,197.046 242.466,197.144 242.090 C 197.243 241.714,197.243 241.099,197.144 240.723 C 197.046 240.347,196.966 240.654,196.966 241.406 M156.348 248.730 C 161.880 248.791,170.933 248.791,176.465 248.730 C 181.997 248.669,177.471 248.619,166.406 248.619 C 155.342 248.619,150.815 248.669,156.348 248.730 M282.218 271.191 L 278.711 274.805 282.324 271.297 C 284.312 269.368,285.938 267.742,285.938 267.684 C 285.938 267.400,285.476 267.835,282.218 271.191 M269.901 283.496 L 268.555 284.961 270.020 283.615 C 271.383 282.362,271.664 282.031,271.366 282.031 C 271.300 282.031,270.641 282.690,269.901 283.496 M277.734 299.414 C 276.786 300.381,276.097 301.172,276.205 301.172 C 276.312 301.172,277.176 300.381,278.125 299.414 C 279.074 298.447,279.762 297.656,279.655 297.656 C 279.547 297.656,278.683 298.447,277.734 299.414 M245.306 308.105 L 241.211 312.305 245.410 308.210 C 247.720 305.958,249.609 304.068,249.609 304.011 C 249.609 303.729,249.109 304.205,245.306 308.105 M268.346 308.887 L 266.211 311.133 268.457 308.998 C 270.544 307.014,270.882 306.641,270.592 306.641 C 270.531 306.641,269.520 307.651,268.346 308.887 M239.624 313.770 L 238.477 315.039 239.746 313.892 C 240.444 313.261,241.016 312.689,241.016 312.622 C 241.016 312.320,240.693 312.586,239.624 313.770 M232.989 320.410 L 231.445 322.070 233.105 320.526 C 234.649 319.090,234.945 318.750,234.650 318.750 C 234.586 318.750,233.839 319.497,232.989 320.410 " stroke="none" fill="#868c92" fill-rule="evenodd"></path><path id="path4" d="M230.273 99.609 C 231.549 100.898,232.681 101.953,232.788 101.953 C 232.895 101.953,231.940 100.898,230.664 99.609 C 229.388 98.320,228.257 97.266,228.149 97.266 C 228.042 97.266,228.998 98.320,230.273 99.609 M213.447 108.008 C 213.447 112.520,213.504 114.312,213.573 111.990 C 213.642 109.669,213.642 105.978,213.572 103.787 C 213.503 101.597,213.446 103.496,213.447 108.008 M102.145 200.977 C 102.145 255.762,102.191 278.116,102.246 250.652 C 102.301 223.189,102.301 178.364,102.246 151.043 C 102.191 123.721,102.145 146.191,102.145 200.977 M237.891 107.227 C 240.570 109.912,242.850 112.109,242.957 112.109 C 243.064 112.109,240.960 109.912,238.281 107.227 C 235.602 104.541,233.322 102.344,233.215 102.344 C 233.107 102.344,235.212 104.541,237.891 107.227 M247.070 116.406 C 248.128 117.480,249.082 118.359,249.189 118.359 C 249.297 118.359,248.519 117.480,247.461 116.406 C 246.403 115.332,245.449 114.453,245.342 114.453 C 245.234 114.453,246.012 115.332,247.070 116.406 M251.156 120.410 C 252.113 121.431,252.948 122.266,253.011 122.266 C 253.304 122.266,252.994 121.915,251.270 120.296 L 249.414 118.555 251.156 120.410 M266.211 135.547 C 272.224 141.563,277.231 146.484,277.339 146.484 C 277.446 146.484,272.614 141.563,266.602 135.547 C 260.589 129.531,255.581 124.609,255.474 124.609 C 255.367 124.609,260.198 129.531,266.211 135.547 M275.391 130.273 C 276.119 131.025,276.804 131.641,276.911 131.641 C 277.018 131.641,276.510 131.025,275.781 130.273 C 275.052 129.521,274.368 128.906,274.261 128.906 C 274.153 128.906,274.662 129.521,275.391 130.273 M281.641 136.450 C 281.641 136.518,282.212 137.089,282.910 137.720 L 284.180 138.867 283.032 137.598 C 281.963 136.414,281.641 136.149,281.641 136.450 M232.715 149.104 C 233.198 149.197,233.989 149.197,234.473 149.104 C 234.956 149.011,234.561 148.935,233.594 148.935 C 232.627 148.935,232.231 149.011,232.715 149.104 M257.719 149.104 C 258.205 149.198,258.908 149.194,259.282 149.097 C 259.655 148.999,259.258 148.922,258.398 148.927 C 257.539 148.931,257.233 149.011,257.719 149.104 M261.035 149.108 C 261.626 149.197,262.593 149.197,263.184 149.108 C 263.774 149.018,263.291 148.945,262.109 148.945 C 260.928 148.945,260.444 149.018,261.035 149.108 M274.316 149.115 C 275.337 149.196,277.007 149.196,278.027 149.115 C 279.048 149.035,278.213 148.969,276.172 148.969 C 274.131 148.969,273.296 149.035,274.316 149.115 M227.727 180.176 C 231.531 184.076,232.031 184.552,232.031 184.270 C 232.031 184.213,230.142 182.323,227.832 180.071 L 223.633 175.977 227.727 180.176 M212.500 192.700 C 212.500 192.768,213.071 193.339,213.770 193.970 L 215.039 195.117 213.892 193.848 C 212.822 192.664,212.500 192.399,212.500 192.700 M246.680 199.219 C 247.519 200.078,248.293 200.781,248.401 200.781 C 248.508 200.781,247.909 200.078,247.070 199.219 C 246.231 198.359,245.457 197.656,245.349 197.656 C 245.242 197.656,245.841 198.359,246.680 199.219 M240.620 220.996 L 234.570 227.148 240.723 221.098 C 246.438 215.478,247.052 214.844,246.773 214.844 C 246.716 214.844,243.948 217.612,240.620 220.996 M216.699 240.119 C 217.183 240.213,217.974 240.213,218.457 240.119 C 218.940 240.026,218.545 239.950,217.578 239.950 C 216.611 239.950,216.216 240.026,216.699 240.119 M245.410 249.097 C 245.786 249.196,246.401 249.196,246.777 249.097 C 247.153 248.999,246.846 248.919,246.094 248.919 C 245.342 248.919,245.034 248.999,245.410 249.097 M155.566 267.077 C 156.157 267.166,157.124 267.166,157.715 267.077 C 158.306 266.987,157.822 266.914,156.641 266.914 C 155.459 266.914,154.976 266.987,155.566 267.077 M181.768 267.090 C 192.473 267.148,209.875 267.148,220.440 267.090 C 231.005 267.032,222.246 266.985,200.977 266.985 C 179.707 266.985,171.063 267.032,181.768 267.090 M170.020 282.715 C 175.767 282.775,185.171 282.775,190.918 282.715 C 196.665 282.654,191.963 282.604,180.469 282.604 C 168.975 282.604,164.272 282.654,170.020 282.715 M290.619 287.012 L 286.133 291.602 290.723 287.116 C 294.986 282.949,295.490 282.422,295.208 282.422 C 295.151 282.422,293.086 284.487,290.619 287.012 M296.654 292.383 C 296.653 297.754,296.709 300.005,296.776 297.386 C 296.843 294.767,296.844 290.372,296.776 287.620 C 296.709 284.869,296.654 287.012,296.654 292.383 M211.511 287.598 L 209.180 290.039 211.621 287.708 C 212.964 286.425,214.063 285.327,214.063 285.266 C 214.063 284.978,213.677 285.330,211.511 287.598 M231.244 292.480 L 226.758 297.070 231.348 292.584 C 235.611 288.418,236.115 287.891,235.833 287.891 C 235.776 287.891,233.711 289.956,231.244 292.480 M257.208 320.410 L 255.664 322.070 257.324 320.526 C 258.868 319.090,259.164 318.750,258.868 318.750 C 258.805 318.750,258.057 319.497,257.208 320.410 " stroke="none" fill="#a4a4ab" fill-rule="evenodd"></path></g></svg>